<mxfile host="app.diagrams.net" modified="2024-07-02T03:45:56.396Z" agent="Mozilla/5.0 (Macintosh; Intel Mac OS X 10_15_7) AppleWebKit/537.36 (KHTML, like Gecko) Chrome/126.0.0.0 Safari/537.36" version="24.6.4" etag="i2UrOfNCPmU1PTcpz8zC" type="github">
  <diagram name="第 1 页" id="ZWHAHIUkTsKHmXH-tBXt">
    <mxGraphModel>
      <root>
        <mxCell id="0" />
        <mxCell id="1" parent="0" />
      </root>
    </mxGraphModel>
  </diagram>
</mxfile>
